<svg width="24" height="24" viewBox="0 0 24 24" fill="none" xmlns="http://www.w3.org/2000/svg">
<path d="M6.51562 13.7344C6.51562 14.2522 6.93534 14.6719 7.45312 14.6719H16.5C17.0178 14.6719 17.4375 14.2522 17.4375 13.7344C17.4375 13.2166 17.0178 12.7969 16.5 12.7969H7.45312C6.93534 12.7969 6.51562 13.2166 6.51562 13.7344Z" fill="#3572EF"/>
<path d="M21.5118 13.8936L21.2019 11.6823C21.13 11.1696 20.6562 10.812 20.1433 10.884C19.6305 10.9559 19.2732 11.4299 19.345 11.9426L19.7655 14.9426C19.8304 15.4056 20.2265 15.75 20.694 15.75H21.1875C21.7044 15.75 22.125 16.1706 22.125 16.6875C22.125 17.2044 21.7044 17.625 21.1875 17.625H2.8125C2.29556 17.625 1.875 17.2044 1.875 16.6875C1.875 16.1706 2.29556 15.75 2.8125 15.75H3.306C3.77348 15.75 4.16953 15.4056 4.23441 14.9426L5.24372 7.7423C5.51564 5.80261 6.58509 4.08398 8.17791 3.02719C9.31406 2.27344 10.6406 1.875 12.0938 1.875C13.0063 1.89384 13.9065 2.07356 14.6697 2.40628C15.1444 2.61314 15.6968 2.39611 15.9037 1.9215C16.1107 1.44689 15.8936 0.894375 15.419 0.687469C14.4302 0.2565 13.3594 0 12.0938 0C10.3595 0 8.58567 0.506531 7.14136 1.4648C5.10169 2.81808 3.73327 5.01127 3.38695 7.48205L2.48817 13.8936C1.08961 14.055 0 15.2464 0 16.6875C0 18.2383 1.26169 19.5 2.8125 19.5H21.1875C22.7383 19.5 24 18.2383 24 16.6875C24 15.2464 22.9104 14.055 21.5118 13.8936Z" fill="#3572EF"/>
<path d="M12.047 24C10.6184 24 9.41761 22.9382 9.25392 21.5302C9.19411 21.0158 9.56255 20.5505 10.0769 20.4907C10.5912 20.4306 11.0565 20.7993 11.1164 21.3136C11.1701 21.7762 11.5703 22.125 12.047 22.125C12.5238 22.125 12.9239 21.7762 12.9777 21.3136C13.0375 20.7993 13.5032 20.4309 14.0172 20.4907C14.5315 20.5505 14.8999 21.0159 14.8401 21.5302C14.6764 22.9382 13.4756 24 12.047 24ZM23.0626 3.75H20.2501V0.9375C20.2501 0.419719 19.8304 0 19.3126 0C18.7949 0 18.3751 0.419719 18.3751 0.9375V3.75H15.5626C15.0449 3.75 14.6251 4.16972 14.6251 4.6875C14.6251 5.20528 15.0449 5.625 15.5626 5.625H18.3751V8.4375C18.3751 8.95528 18.7949 9.375 19.3126 9.375C19.8304 9.375 20.2501 8.95528 20.2501 8.4375V5.625H23.0626C23.5804 5.625 24.0001 5.20528 24.0001 4.6875C24.0001 4.16972 23.5804 3.75 23.0626 3.75Z" fill="#F80D38"/>
</svg>
